<?xml version="1.0" standalone="no"?>
<!DOCTYPE svg PUBLIC "-//W3C//DTD SVG 20010904//EN"
 "http://www.w3.org/TR/2001/REC-SVG-20010904/DTD/svg10.dtd">
<svg version="1.0" xmlns="http://www.w3.org/2000/svg"
 width="414.000000pt" height="153.000000pt" viewBox="0 0 414.000000 153.000000"
 preserveAspectRatio="xMidYMid meet">
<metadata>
Created by potrace 1.16, written by Peter Selinger 2001-2019
</metadata>
<g transform="translate(0.000000,153.000000) scale(0.100000,-0.100000)"
fill="#000000" stroke="none">
<path d="M456 1469 c-68 -14 -164 -60 -212 -102 -45 -40 -98 -131 -112 -195
l-10 -42 143 0 143 0 6 25 c10 39 76 101 121 114 54 15 92 14 150 -3 63 -19
102 -58 120 -121 26 -86 1 -168 -66 -218 -33 -24 -127 -47 -196 -47 l-53 0 0
-93 0 -94 78 -11 c42 -6 94 -16 115 -22 50 -15 113 -72 128 -117 15 -45 15
-121 0 -166 -16 -47 -79 -103 -133 -118 -58 -15 -154 -6 -206 20 -48 25 -99
88 -108 136 l-6 32 -136 6 c-75 3 -138 4 -140 2 -10 -10 24 -127 51 -178 49
-94 140 -160 277 -202 82 -25 287 -31 373 -11 72 17 144 50 191 89 l29 23 -37
55 c-75 111 -103 283 -69 416 l19 72 -27 10 c-36 12 -53 44 -39 71 6 10 31 28
56 39 68 31 117 73 150 133 26 48 29 61 29 148 0 80 -4 102 -23 138 -77 144
-211 212 -432 218 -69 2 -147 -1 -174 -7z"/>
</g>
</svg>
