<svg xmlns="http://www.w3.org/2000/svg" xmlns:xlink="http://www.w3.org/1999/xlink" width="217.846" height="193.819" viewBox="0 0 217.846 193.819">
  <defs>
    <linearGradient id="linear-gradient" x1="0.5" x2="0.5" y2="1" gradientUnits="objectBoundingBox">
      <stop offset="0" stop-color="#4776e6"/>
      <stop offset="1" stop-color="#8e54e9"/>
    </linearGradient>
    <linearGradient id="linear-gradient-2" x1="0.5" x2="0.5" y2="1" gradientUnits="objectBoundingBox">
      <stop offset="0" stop-color="#8e54e9"/>
      <stop offset="1" stop-color="#4776e6"/>
    </linearGradient>
  </defs>
  <g id="Group_121" data-name="Group 121" transform="translate(0 0)">
    <path id="Path_349" data-name="Path 349" d="M78.342,8.677c58.572-6.743,98.419-36.2,98.419,73.091,0,70.276-128.388,36.494-128.388,36.494S7.312,107.734.936,89.221,22.867,44.212,22.867,44.212,61.981,10.56,78.342,8.677Z" transform="translate(217.846 118.757) rotate(160)" opacity="0.2" fill="url(#linear-gradient)"/>
    <path id="Path_350" data-name="Path 350" d="M122.762,16.636C147.5,14.5,164.951,4.187,179.425,23.6s20.219,47.777,1.234,70.7-49.742,31.963-77.175,20.991C58.364,97.247,0,76.872,0,24.666S85.5,19.857,122.762,16.636Z" transform="translate(2.093 38.797) rotate(1)" opacity="0.2" fill="url(#linear-gradient-2)"/>
    <g id="Group_119" data-name="Group 119" transform="translate(31.51 18.528)">
      <rect id="Rectangle_68" data-name="Rectangle 68" width="7.511" height="7.899" transform="translate(88.082 45.492)" fill="#8e54e9"/>
      <path id="Path_351" data-name="Path 351" d="M413.349,166.707s-6.566,3.108-5.789,8.547a120.257,120.257,0,0,1,.906,12.3s4.875,8.549.923,16.966l-11.8,32.229s12.007,2.107,21.486-1.053,4.862,7.538,9.69,11.164,17.694,7.162,17.694,7.162-2.434-3.1-2.306-6.275c.1-2.44,5.4-5.136,2.051-11.7-7.2-14.107-23.445-42.722-21.814-44.353,0,0,4.274-6.345.389-10.36s-1.943-7.77-1.943-7.77l12.476-6.69s2.631.041,6.172-5.483c2.292-3.53-2.176-6.6-4.437-4.589-1.606,1.425-3.155,2.9-4.7,4.4-1.145,1.1-3.693,2.675-9.251,3.566C413.953,166.236,413.349,166.707,413.349,166.707Z" transform="translate(-396.66 -133.223)" fill="#603dae"/>
      <path id="Path_202" data-name="Path 202" d="M640.637,587.634c-.66,3.3-1.64,5.869-3.452,7.381s-4.359,5.568-4.359,5.568c-.044,5.4-1.469,7.034-1.469,7.034l-1.469.389h-3.626a17.951,17.951,0,0,1-.777-2.89,3.39,3.39,0,0,1,.57-1.611,20.185,20.185,0,0,0,2.37-7.674l.168-1.593c-.306-9.886,3.626-13.095,5.276-14.009a1.616,1.616,0,0,0,.821-1.254h0l.293-2.826,9.754.479a7.737,7.737,0,0,0,.163,2.849c.075.412.176.87.311,1.38C645.988,583.834,640.679,587.416,640.637,587.634Z" transform="translate(-561.683 -450.93)" fill="#ffc4d0"/>
      <path id="Path_203" data-name="Path 203" d="M706.687,583.652a25.159,25.159,0,0,1-1.38,4.224,10.843,10.843,0,0,0-.829,3.843v.132a33.455,33.455,0,0,1-2.4,11.411c-1.432,3.585-3.331,8.249-3.9,9.231-.948,1.639-.389,4.4-.389,4.4l-5.491-.388.1-9.239a34.4,34.4,0,0,1,2.678-15.444,10.126,10.126,0,0,0,.777-3.468l.259-6.128.08-1.813s9.707-1.38,10.526.821A4.66,4.66,0,0,1,706.687,583.652Z" transform="translate(-611.193 -453.776)" fill="#ffc4d0"/>
      <path id="Path_204" data-name="Path 204" d="M671.22,579.478l-10.22-.5.292-2.826,9.764.479A7.511,7.511,0,0,0,671.22,579.478Z" transform="translate(-588.002 -450.93)" opacity="0.1"/>
      <path id="Path_205" data-name="Path 205" d="M717.583,583.652,707,582.23l.08-1.813s9.707-1.38,10.526.821A4.629,4.629,0,0,1,717.583,583.652Z" transform="translate(-622.088 -453.776)" opacity="0.1"/>
      <path id="Path_206" data-name="Path 206" d="M675.341,452.882l-4.229,18.562-12.517-1.683v-6.389l-1.083,6.566L642.49,469.2l.777-14.374a53.313,53.313,0,0,0,1.683-8.762c.293-3.248,1.831-11.259,2.574-15.022.259-1.241.4-2.023.4-2.023s25.729,5.351,27.412,7.293a4.1,4.1,0,0,1,.593,1.971C676.5,442.822,675.341,452.882,675.341,452.882Z" transform="translate(-574.286 -341.907)" fill="#232323"/>
      <path id="Path_207" data-name="Path 207" d="M653.33,513.393s10.127-5.309,12.6-4.188Z" transform="translate(-582.319 -401.209)" opacity="0.1"/>
      <path id="Path_208" data-name="Path 208" d="M674.66,458.82s8.418,6.39,8.676,8.114Z" transform="translate(-598.124 -363.988)" opacity="0.1"/>
      <path id="Path_209" data-name="Path 209" d="M665.83,543.774s6.087-.259,8.029,1.295Z" transform="translate(-591.581 -426.927)" opacity="0.1"/>
      <path id="Path_210" data-name="Path 210" d="M705.567,517.44s2.893,9.469,1.639,12.059-2.546-.606-2.546-.606Z" transform="translate(-620.355 -407.426)" opacity="0.1"/>
      <path id="Path_211" data-name="Path 211" d="M685.621,708s-2.849.432-2.331,7.337,1.295,8.117,2.331,8.2,6.086,1.339,5.827-1.21-.518-8.2-.173-9.065.94-3.142-.365-3.7l-.282,1.331s-2.764-2.549-4.4-.691a7.168,7.168,0,0,0-.339-1.329C685.722,708.469,685.365,708.259,685.621,708Z" transform="translate(-604.473 -548.631)" fill="url(#linear-gradient)"/>
      <path id="Path_212" data-name="Path 212" d="M829.743,348.5s-.653.365-1.611.821a17.941,17.941,0,0,1-5.315,1.769c-2.688.228-3.53.487-6.6-1.715-2.359-1.689-6.309-4.043-8.029-5.048l-.749-.443-.075-.044v-.031l1.427-3.921,5.05-2.686,1.254,1.075,3.732,3.2a1.863,1.863,0,0,0,1.523.873c.94-.065,5.957.355,5.957.355l.948.155,2,.332Z" transform="translate(-696.456 -273.868)" fill="#ffc4d0"/>
      <path id="Path_213" data-name="Path 213" d="M883.907,364.886s-.622.309-1.581.765c-1.013-.518-2.45-1.677-1.965-3.275.438-1.437.687-2.648,1.047-3.456l1.938.255Z" transform="translate(-751.064 -290.047)" opacity="0.1"/>
      <path id="Path_214" data-name="Path 214" d="M883.813,353.338s5.633-1.619,5.214,5.18-4.76,3.077-4.76,3.077-3.691-.971-2.914-3.53S881.9,353.954,883.813,353.338Z" transform="translate(-751.204 -285.701)" fill="#ffc4d0"/>
      <path id="Path_215" data-name="Path 215" d="M604.81,144.734l-5.869,2.466-.091.039-.065-.031-.365-.184c-1.518-.756-6.734-3.344-10.015-4.88-3.885-1.813-3.282-3.626-3.282-3.626l-.559-18.992-.995-3.411s-.7-11.562,4.921-14.46,1.986,16.747,1.986,16.747l.435,4.082a43.716,43.716,0,0,0,1.541,7.71,11.979,11.979,0,0,1,.456,2.541c.173,2.761,1.468,2.577,1.468,2.577a18.03,18.03,0,0,1,5.838,1.984,14.6,14.6,0,0,1,1.932,1.222Z" transform="translate(-530.606 -99.112)" fill="#ffc4d0"/>
      <path id="Path_216" data-name="Path 216" d="M732,266.273l-5.009-.518a19.247,19.247,0,0,0,2.127-4.333,7.415,7.415,0,0,0,.22-.894,2.982,2.982,0,0,0-.275-2.2c-1.466-2.157,8.72-5.18,8.72-5.18a24.888,24.888,0,0,0-.111,3.595,18.193,18.193,0,0,0,.259,2.489,6.173,6.173,0,0,0,2.093,4.061C743.221,265.5,732,266.273,732,266.273Z" transform="translate(-636.901 -211.587)" fill="#ffc4d0"/>
      <path id="Path_217" data-name="Path 217" d="M732,283.68l-5.009-.518a19.247,19.247,0,0,0,2.127-4.333,1.808,1.808,0,0,0,1.587.966s5.056.749,7.231-3.155a6.174,6.174,0,0,0,2.093,4.061C743.221,282.9,732,283.68,732,283.68Z" transform="translate(-636.901 -228.993)" opacity="0.1"/>
      <path id="Path_218" data-name="Path 218" d="M808.231,344.325a2.773,2.773,0,0,0,.021.461l-.777-.9-.065-.075,1.427-3.921,5.05-2.686,1.254,1.075C813.346,338.961,808.311,341.139,808.231,344.325Z" transform="translate(-696.492 -273.868)" opacity="0.1"/>
      <path id="Path_219" data-name="Path 219" d="M647.128,247.516l-5.869,2.466H641.1l-.453.031s.034-.075.088-.215c.49-1.189,2.761-6.993,1.779-9.728a14.6,14.6,0,0,1,1.932,1.223Z" transform="translate(-572.923 -201.894)" opacity="0.1"/>
      <path id="Path_220" data-name="Path 220" d="M690.339,438.269c-2.284-.2-25.138-2.318-27.27-5.682a11.818,11.818,0,0,0-1.14-1.554c.259-1.241.4-2.023.4-2.023s25.729,5.351,27.412,7.293A4.043,4.043,0,0,1,690.339,438.269Z" transform="translate(-588.691 -341.899)" opacity="0.1"/>
      <path id="Path_221" data-name="Path 221" d="M668.215,252.029s5.11.756,7.27-3.214c0,0,3.608,2.963,5.765,3.217s12.173,12.862,12.173,12.862-8.029,2.59-7.511,6.734l-3.8-4.4s-1.9-.088-3.538,5.18c0,0-1.987,3.02-1.728,12.6s-.6,11.828-.6,11.828-25.211-2.157-27.454-5.7-2.59-1.813-2.59-1.813-.347-6.734,1.984-12.173S650,256.087,650,256.087s.259-7.684-7.337-6.993c0,0,3.193-7.425,1.727-10.274a37.4,37.4,0,0,0,7.482,1.223,12.8,12.8,0,0,1,5.512,1.295,6.113,6.113,0,0,1,2.287,1.725,3.358,3.358,0,0,0,3.885,1.124,39.21,39.21,0,0,0,2.253,5.524c.1.189.2.376.306.554a8.495,8.495,0,0,0,.461.73A1.851,1.851,0,0,0,668.215,252.029Z" transform="translate(-574.412 -200.968)" fill="url(#linear-gradient)"/>
      <path id="Path_222" data-name="Path 222" d="M743.208,256.715a8.867,8.867,0,0,1-.917,1.1,12.8,12.8,0,0,1-7.685,3.419c-.312,0,.585-.7.275-.735a2.981,2.981,0,0,0-.275-2.2c-1.466-2.157,8.72-5.18,8.72-5.18A24.906,24.906,0,0,0,743.208,256.715Z" transform="translate(-642.438 -211.564)" opacity="0.1"/>
      <path id="Path_223" data-name="Path 223" d="M722.908,219.885c0,5.006,1.961,5.61-3.045,5.61-1.379.776-9.394,5.966-11.117,4.481-1.282-1.1-2.121-3.671-2.585-6.636-.059-.373-1.127-.073-1.207-.776-.068-.593.862-2.208.862-2.68,0-5.006,3.022-9.065,8.028-9.065a9.031,9.031,0,0,1,9.065,9.065Z" transform="translate(-620.473 -180.22)" fill="#ffc4d0"/>
      <path id="Path_224" data-name="Path 224" d="M792,325.79l.186,6.066s2.707-2.181,2.792-4.253S792,325.79,792,325.79Z" transform="translate(-685.073 -265.406)" opacity="0.1"/>
      <path id="Path_225" data-name="Path 225" d="M707.66,349.24s7.122,9.777,11.266,10.769S709.214,352.41,707.66,349.24Z" transform="translate(-622.578 -282.79)" opacity="0.1"/>
      <path id="Path_226" data-name="Path 226" d="M736.83,353.17s3.971,4.486,6.82,5.045Z" transform="translate(-644.193 -285.702)" opacity="0.1"/>
      <path id="Path_227" data-name="Path 227" d="M682.83,396.82s7.252,7.122,11.4,7.555Z" transform="translate(-604.178 -318.046)" opacity="0.1"/>
      <path id="Path_228" data-name="Path 228" d="M730.5,219.881a9.03,9.03,0,0,1-2.59,6.335l-.995-.619a2.751,2.751,0,0,1-.969-.842,3.347,3.347,0,0,1-.207-1.878,4.418,4.418,0,0,0-1.378-3.667c-1.717-1.375-4.47-.614-6.216-1.963a6.138,6.138,0,0,1-1.1-1.225l-1.637-2.194c-.1-.129-.218-.259-.344-.412a9.065,9.065,0,0,1,15.421,6.475Z" transform="translate(-628.061 -180.216)" opacity="0.1"/>
      <path id="Path_230" data-name="Path 230" d="M724.619,218.435a2.726,2.726,0,0,1-.969-.842,3.348,3.348,0,0,1-.207-1.878,4.418,4.418,0,0,0-1.378-3.667c-1.717-1.375-4.47-.614-6.216-1.963a6.118,6.118,0,0,1-1.1-1.225l-1.637-2.194a6.193,6.193,0,0,1-1.191-1.65c-.282-1,.433-2.3,1.2-3.136-.857.793-1.8,2.3-1.479,3.419a6.483,6.483,0,0,0,1.191,1.65l1.637,2.194a6.131,6.131,0,0,0,1.1,1.225c1.738,1.349,4.491.588,6.216,1.963A4.423,4.423,0,0,1,723.159,216a3.347,3.347,0,0,0,.207,1.878,2.724,2.724,0,0,0,.969.842l2.528,1.572a4.337,4.337,0,0,1,.015-.448Z" transform="translate(-625.478 -173.596)" opacity="0.1"/>
      <path id="Path_231" data-name="Path 231" d="M621.134,682.94s-2.523.518-2,7.436,1.295,8.117,2.331,8.2,6.087,1.339,5.828-1.21-.518-8.2-.173-9.065,1.712-3.188.406-3.75l-1.054,1.378s-2.764-2.548-4.4-.691C622.064,685.24,620.531,683.543,621.134,682.94Z" transform="translate(-556.924 -530.062)" fill="url(#linear-gradient)"/>
      <path id="Path_232" data-name="Path 232" d="M633.23,699.5c.547.259,1.057.575,1.6.834a3.6,3.6,0,0,0,1.738.409,1.214,1.214,0,0,0,.71-.246" transform="translate(-567.425 -542.333)" opacity="0.1"/>
      <path id="Path_233" data-name="Path 233" d="M697.33,725.62a8.778,8.778,0,0,0,.94.925,3.28,3.28,0,0,0,1.813.376.74.74,0,0,0,.311-.039.759.759,0,0,0,.277-.259l.339-.438" transform="translate(-614.923 -561.688)" opacity="0.1"/>
      <path id="Path_235" data-name="Path 235" d="M549.84,114.617l9.2-10.723S564,89.606,568.925,93.276s-6.237,12.95-6.237,12.95l-9.857,12.754Z" transform="translate(-509.351 -92.673)" fill="#ffc1c7"/>
      <path id="Path_238" data-name="Path 238" d="M334.76,284.87l.176,10.816h12.041l-.906-6.3Z" transform="translate(-321.593 -217.819)" fill="#ffc1c7"/>
      <path id="Path_239" data-name="Path 239" d="M435.8,455.82l.562,3.452L443.4,474.9s3.193,4.921.6,9.065-5.265,10.619-5.7,14.545-5.589,11.5-5.589,11.5l5.589,2.795s4.1-9.543,6.175-12.436,8.718-15.625,8.718-15.625,2.116-1.9,1.642-7.555-.432-9.627-.432-9.627l-.733-9.021Z" transform="translate(-419.828 -361.766)" fill="#ffc1c7"/>
      <path id="Path_242" data-name="Path 242" d="M429.344,375.58l-6.025.638c-1.166.129-.995,1.059-.965,2.232a23.829,23.829,0,0,1-1.557,7.381,12.793,12.793,0,0,0,4.792,13.986l9.368,2.978-16.8,1.789.573,6.328h4.014l28.49,1.3s8.073-.821,2.59-9.583-17.135-17.353-17.135-17.353l-.129-6.822-.865-1.984Z" transform="translate(-409.056 -302.308)" fill="#ffc1c7"/>
      <path id="Path_243" data-name="Path 243" d="M487.66,478.216a8.091,8.091,0,0,1,6.475,0Z" transform="translate(-459.557 -377.86)" opacity="0.1"/>
      <path id="Path_257" data-name="Path 257" d="M5.26-2.108A8.7,8.7,0,0,1,9.041-1.7c.875.308,3.349,2.065,4.154,1.909,2.081-.4.268,1.311.755,1.688,1.089.843.972,1.689,1.792,2.414,2.505,2.218-1.115,4.129-1.115,4.129S11.86,14.4,7.64,14.4A7.64,7.64,0,0,1,0,6.764C0,2.544,1.04-2.108,5.26-2.108Z" transform="translate(8.121 21.795)" fill="#ffc1c7"/>
      <path id="Path_248" data-name="Path 248" d="M413.349,166.707s-6.566,3.108-5.789,8.547a120.257,120.257,0,0,1,.906,12.3s4.875,8.549.923,16.966l-11.8,32.229s12.007,2.107,21.486-1.053,4.862,7.538,9.69,11.164,17.694,7.162,17.694,7.162-2.434-3.1-2.306-6.275c.1-2.44,5.4-5.136,2.051-11.7-7.2-14.107-23.445-42.722-21.814-44.353,0,0,4.274-6.345.389-10.36s-1.943-7.77-1.943-7.77l12.476-6.69s2.631.041,6.172-5.483c2.292-3.53-2.176-6.6-4.437-4.589-1.606,1.425-3.155,2.9-4.7,4.4-1.145,1.1-3.693,2.675-9.251,3.566C413.953,166.236,413.349,166.707,413.349,166.707Z" transform="translate(-397.59 -134.553)" fill="#8458e8"/>
      <path id="Path_249" data-name="Path 249" d="M461.83,342.49s5.092,7.511,5.221,8.806C467.054,351.3,466.277,343.223,461.83,342.49Z" transform="translate(-440.417 -277.788)" opacity="0.1"/>
      <path id="Path_250" data-name="Path 250" d="M436,244.82s3.551,4.273,8.682.691A11,11,0,0,1,436,244.82Z" transform="translate(-421.277 -205.414)" opacity="0.1"/>
      <path id="Path_252" data-name="Path 252" d="M377.029,158.775c-1.171-1.469-5.829-.428-5.829-.428s-4.938,1.75-5.657,11.985c-.1,1.443,4.542,3.656,4.6,5.465.062,1.975-2.093,9.244-2.581,13.128-.419,3.344.851,3.293,0,5.787-1.745,5.11,1.744-3.8,1.815-3.177s.057,5.957-1.531,5.673,3.328.907,6.746,1.313c9.936,1.179-1.944-22.246-1.765-23.683.157-1.3,5.538-4.142,5.657-5.849.047-.647,1.421-2.048,1.058-4.6A14.16,14.16,0,0,0,377.029,158.775Z" transform="translate(-360.63 -139.242)" fill="#5e483f"/>
      <path id="Path_255" data-name="Path 255" d="M406.82,525a3.5,3.5,0,0,0,3.582.989" transform="translate(-399.654 -413.028)" opacity="0.1"/>
      <path id="Path_256" data-name="Path 256" d="M465.787,696a2.2,2.2,0,0,1-1.787.451" transform="translate(-442.025 -539.739)" opacity="0.1"/>
      <path id="Path_258" data-name="Path 258" d="M436,244.82s3.551,4.273,8.682.691A11,11,0,0,1,436,244.82Z" transform="translate(-421.277 -216.074)" opacity="0.1"/>
      <path id="Path_346" data-name="Path 346" d="M0,0A15.169,15.169,0,0,0,1.172,2.514C2.831,5.2,6.253,10.235,6.35,11.208,6.353,11.208,5.721,2.826,0,0Z" transform="translate(24.682 100.185) rotate(-65)" opacity="0.1"/>
      <path id="Path_347" data-name="Path 347" d="M.214,0a15.818,15.818,0,0,0,.8,7.1c.478,1.454,3.573,4.623,3.6,5.629C4.645,13.7-.3,9.5.015,10.257c.487,1.159,0,6.782.438,7.548.054.14.886-3.374,1.554-3.276,1.14.166,5.679-.759,6.285.054,1.478,1.983,2.514-.148.494-3.794S3.824,1.783.214,0Z" transform="translate(30.721 111.057) rotate(-65)" opacity="0.1"/>
      <path id="Path_348" data-name="Path 348" d="M0,0A36.759,36.759,0,0,0,1.172,4.28c1.659,4.581,5.081,13.146,5.178,14.8C6.353,19.082,5.721,4.811,0,0Z" transform="matrix(0.208, -0.978, 0.978, 0.208, 0, 103.899)" opacity="0.1"/>
      <path id="Path_352" data-name="Path 352" d="M883.5,357.34c-1.785,3.491-1.788,4.173-2.746,4.629-1.013-.518-.589-4.315-.589-4.315a32.174,32.174,0,0,0,4.04-4.315c1.9-2.48,3.688-5.335,3.688-5.335S885.287,353.849,883.5,357.34Z" transform="translate(-827.252 -343.633)" opacity="0.1"/>
    </g>
    <path id="Path_344" data-name="Path 344" d="M421.394,648.82s-7.883,2.4-5.269,6.341,11.1,11.438,14.522,11.181,2.056-2.786,2.056-2.786l-2.871-2.827s-2.55-3.812-2.335-5.567-.274-4.926-.619-3.9S421.394,648.82,421.394,648.82Z" transform="translate(-376.816 -482.407)" fill="#54329f"/>
    <path id="Path_353" data-name="Path 353" d="M.016,4.959A6.841,6.841,0,0,1,.792,1.847,6.642,6.642,0,0,1,3.332,0a7.587,7.587,0,0,1-.615,3.017C2.028,4-.212,5.413.016,4.959Z" transform="translate(49.594 165.737) rotate(82)" fill="#ffc1c7"/>
    <path id="Path_240" data-name="Path 240" d="M443.7,480.305h-1.458l1.458,4.58s3.194,4.921.6,9.065-5.265,10.619-5.7,14.545-5.161,10.96-5.161,10.96,1.138,1.963,2.432,2.432a7,7,0,0,0,2.981.2s3.851-8.838,5.923-11.731,8.718-15.625,8.718-15.625,2.116-1.9,1.642-7.555c-.2-2.4-2.237-2.082-3.59-3.247a10.733,10.733,0,0,1-2.413-3.619Z" transform="translate(-388.826 -352.992)" opacity="0.1"/>
    <path id="Path_345" data-name="Path 345" d="M397.25,483.262s-9.209-1.326-9.253.429,1.285,18.848,5.7,17.692,2.527-6.811,2.527-6.811l.583-3.158s3.059-1.767.875-1.6Z" transform="translate(-356.312 -362.553)" fill="#54329f"/>
    <path id="Path_96" data-name="Path 96" d="M17.663,19.335c-1.63,1.877-1.2,1.236-1.2,1.236.11-1.136-6.2-3.5-6.346-4.7-.033-.3,1.683-3.057.457-4.759-.752-1.044-2.861-.052-3.438-1.218-.761-1.54-3.016-.78-4.43-1.623C1.944,7.82-1.147,5.41.454,5.9c1.462.451,1.711-.148,2.252-1.341a2.5,2.5,0,0,1,.55-2.472A8.33,8.33,0,0,1,7.926.022a14.211,14.211,0,0,1,6.4,1.35c.339.143.677.293,1.142.516-.757.026-.837.636.049.711.829-.569,4.034,2.037,4.856,3.306,1.736,2.682.868,5.041,0,8.177A13.322,13.322,0,0,1,17.663,19.335Z" transform="matrix(0.995, -0.105, 0.105, 0.995, 114.249, 47.344)" fill="#5e483f"/>
    <g id="Group_120" data-name="Group 120" transform="translate(35.988 126.5)">
      <g id="Path_354" data-name="Path 354" transform="translate(3.271 2.914)" fill="none">
        <path d="M3.591-1.058C4.736-1.058,3.18.13,3.18.621s.038.982-1.107.982S0,.948,0,.457,2.446-1.058,3.591-1.058Z" stroke="none"/>
        <path d="M 2.232894659042358 0.2540172636508942 C 1.989830255508423 0.3397711515426636 1.751131057739258 0.4354235231876373 1.540023326873779 0.5304194688796997 C 1.696048736572266 0.5736635327339172 1.875938177108765 0.6027976274490356 2.072762489318848 0.6027976274490356 C 2.112583637237549 0.6027976274490356 2.148156642913818 0.6020133495330811 2.179853200912476 0.6006932854652405 C 2.181768655776978 0.4798620343208313 2.200869798660278 0.3646935820579529 2.232894659042358 0.2540172636508942 M 3.590892314910889 -1.057982325553894 C 4.735642433166504 -1.057982325553894 3.179692268371582 0.1302476525306702 3.179692268371582 0.6208576560020447 C 3.179692268371582 1.111467599868774 3.217512369155884 1.602797627449036 2.072762489318848 1.602797627449036 C 0.9280023574829102 1.602797627449036 2.384185791015625e-06 0.9475076198577881 2.384185791015625e-06 0.456897646188736 C 2.384185791015625e-06 -0.03371232748031616 2.446142435073853 -1.057982325553894 3.590892314910889 -1.057982325553894 Z" stroke="none" fill="#bc94fb"/>
      </g>
      <g id="Path_355" data-name="Path 355" transform="matrix(-0.819, -0.574, 0.574, -0.819, 3.272, 4.435)" fill="none">
        <path d="M3.591,2.617c1.145,0-.513-1.091-.513-1.582S3.149,0,2,0,0,.612,0,1.1,2.446,2.617,3.591,2.617Z" stroke="none"/>
        <path d="M 2.096951007843018 1.255851745605469 C 2.084490060806274 1.184761762619019 2.077797174453735 1.111392259597778 2.077797174453735 1.035356283187866 C 2.077797174453735 1.023976683616638 2.077831268310547 1.012568950653076 2.077885866165161 1.001142621040344 C 2.055289030075073 1.000412344932556 2.03072452545166 0.9999962449073792 2.004057168960571 0.9999962449073792 C 1.843895077705383 0.9999962449073792 1.699663877487183 1.016802072525024 1.572759032249451 1.043242335319519 C 1.735651731491089 1.115621566772461 1.913693070411682 1.188001990318298 2.096951007843018 1.255851745605469 M 3.59106707572937 2.61703634262085 C 2.4462571144104 2.61703634262085 -2.911987394327298e-06 1.592756271362305 -2.911987394327298e-06 1.102156281471252 C -2.911987394327298e-06 0.6115462779998779 0.859247088432312 -3.736038252100116e-06 2.004057168960571 -3.736038252100116e-06 C 3.148867130279541 -3.736038252100116e-06 3.077797174453735 0.5447462797164917 3.077797174453735 1.035356283187866 C 3.077797174453735 1.525966286659241 4.73587703704834 2.61703634262085 3.59106707572937 2.61703634262085 Z" stroke="none" fill="#bc94fb"/>
      </g>
      <path id="Path_356" data-name="Path 356" d="M3.72,0s-.3,1.383-1.186,1.679c-.382.127-1.795.17-2.125-.446" transform="translate(-0.187 3.445)" fill="none" stroke="#bc94fb" stroke-width="1"/>
      <path id="Path_357" data-name="Path 357" d="M0,0S.2,1.383.8,1.679c.257.127,1.207.17,1.429-.446" transform="translate(3.813 3.532) rotate(29)" fill="none" stroke="#bc94fb" stroke-width="1"/>
    </g>
    <g id="Path_358" data-name="Path 358" transform="translate(50.043 173.756) rotate(-41)" fill="none">
      <path d="M2.052,0c1.145,0,.134.545.134,1.036s.2.582-.94.582S0,1.424,0,.934.907,0,2.052,0Z" stroke="none"/>
      <path d="M 2.051588773727417 2.741813659667969e-06 C 3.196338653564453 2.741813659667969e-06 2.185188770294189 0.5450927019119263 2.185188770294189 1.035702705383301 C 2.185188770294189 1.526312708854675 2.389528751373291 1.617482662200928 1.244778752326965 1.617482662200928 C 0.1000187397003174 1.617482662200928 -1.192092895507813e-06 1.424112677574158 -1.192092895507813e-06 0.9335026741027832 C -1.192092895507813e-06 0.4428926706314087 0.9068286418914795 2.741813659667969e-06 2.051588773727417 2.741813659667969e-06 Z" stroke="none" fill="#bc94fb"/>
    </g>
    <g id="Path_359" data-name="Path 359" transform="matrix(-0.995, 0.105, -0.105, -0.995, 51.354, 175.262)" fill="none">
      <path d="M3.591,2.617c1.145,0-.513-1.091-.513-1.582S3.149,0,2,0,0,.612,0,1.1,2.446,2.617,3.591,2.617Z" stroke="none"/>
      <path d="M 2.096951007843018 1.255851745605469 C 2.084490060806274 1.184761762619019 2.077797174453735 1.111392259597778 2.077797174453735 1.035356283187866 C 2.077797174453735 1.023976683616638 2.077831268310547 1.012568950653076 2.077885866165161 1.001142621040344 C 2.055289030075073 1.000412344932556 2.03072452545166 0.9999962449073792 2.004057168960571 0.9999962449073792 C 1.843895077705383 0.9999962449073792 1.699663877487183 1.016802072525024 1.572759032249451 1.043242335319519 C 1.735651731491089 1.115621566772461 1.913693070411682 1.188001990318298 2.096951007843018 1.255851745605469 M 3.59106707572937 2.61703634262085 C 2.4462571144104 2.61703634262085 -2.911987394327298e-06 1.592756271362305 -2.911987394327298e-06 1.102156281471252 C -2.911987394327298e-06 0.6115462779998779 0.859247088432312 -3.736038252100116e-06 2.004057168960571 -3.736038252100116e-06 C 3.148867130279541 -3.736038252100116e-06 3.077797174453735 0.5447462797164917 3.077797174453735 1.035356283187866 C 3.077797174453735 1.525966286659241 4.73587703704834 2.61703634262085 3.59106707572937 2.61703634262085 Z" stroke="none" fill="#bc94fb"/>
    </g>
    <path id="Path_360" data-name="Path 360" d="M3.311,0a4.784,4.784,0,0,1-1.76,1.465C1.169,1.593.33,1.849,0,1.233" transform="translate(48.403 176.516) rotate(-41)" fill="none" stroke="#bc94fb" stroke-width="1"/>
    <path id="Path_361" data-name="Path 361" d="M1.127,0a8.411,8.411,0,0,1,.489,1.61C1.8,2.542-.064,3.653,0,3.981" transform="matrix(0.978, -0.208, 0.208, 0.978, 50.068, 174.46)" fill="none" stroke="#bc94fb" stroke-width="1"/>
  </g>
</svg>
