<svg xmlns="http://www.w3.org/2000/svg" xmlns:xlink="http://www.w3.org/1999/xlink" width="260" height="187.111" viewBox="0 0 260 187.111">
  <defs>
    <linearGradient id="linear-gradient" x1="0.5" x2="0.5" y2="1" gradientUnits="objectBoundingBox">
      <stop offset="0" stop-color="#4776e6"/>
      <stop offset="1" stop-color="#8e54e9"/>
    </linearGradient>
  </defs>
  <g id="Group_131" data-name="Group 131" transform="translate(-32 -348.401)">
    <rect id="Rectangle_100" data-name="Rectangle 100" width="260" height="146" rx="5" transform="translate(32 376)" fill="none"/>
    <g id="Group_130" data-name="Group 130" transform="translate(40.775 348.401)">
      <path id="Path_401" data-name="Path 401" d="M90.245,6.589C172.4.769,202.174-21.863,202.174,72.462c0,60.651-153.962,28.7-153.962,28.7S11.338,94.8,2.395,78.819,12.438,37.257,12.438,37.257,67.3,8.214,90.245,6.589Z" transform="matrix(-0.899, 0.438, -0.438, -0.899, 229.747, 98.484)" opacity="0.3" fill="url(#linear-gradient)"/>
    </g>
    <path id="Path_349" data-name="Path 349" d="M62.763,6.763c46.924-5.255,78.847-28.216,78.847,56.966,0,54.772-102.856,28.443-102.856,28.443s-32.9-8.206-38-22.634S18.32,34.458,18.32,34.458,49.656,8.231,62.763,6.763Z" transform="translate(180.734 532.841) rotate(-150)" opacity="0.3" fill="url(#linear-gradient)"/>
    <path id="Path_364" data-name="Path 364" d="M527.853,310.381c-2.9,8.6-7.355,16.428-16.428,16.428S495.508,319.44,495,310.381c-.653-11.575,7.146-16.476,16.428-16.428C522.391,294.009,531.3,300.18,527.853,310.381Z" transform="translate(-369.317 107.092)" fill="#533c38"/>
    <path id="Path_399" data-name="Path 399" d="M0,0H26.871s9.6,26.719,9.88,36.509-7.523,9.622-7.523,9.622L0,39.16Z" transform="translate(128.911 409.308)" fill="#533c38"/>
    <path id="Path_365" data-name="Path 365" d="M534.552,408.089s.859,12.319-1.146,14.325,17.763,3.725,17.476,1.433-4.011-17.19-2.865-20.341S534.552,408.089,534.552,408.089Z" transform="translate(-396.213 23.705)" fill="#ffb8b8"/>
    <path id="Path_100" data-name="Path 100" d="M0,17.079c-.048-8.711,14.09-11.2,16.114-10.75L21.91,0l2.332,6.179L20,10.928C18.976,14.308.048,25.79,0,17.079Z" transform="matrix(-0.208, 0.978, -0.978, -0.208, 96.932, 455.958)" fill="#ffc4d0"/>
    <path id="Path_366" data-name="Path 366" d="M534.552,408.089s.859,12.319-1.146,14.325,17.763,3.725,17.476,1.433-4.011-17.19-2.865-20.341S534.552,408.089,534.552,408.089Z" transform="translate(-396.213 23.705)" opacity="0.1"/>
    <path id="Path_367" data-name="Path 367" d="M393.029,488.1l-10.294,34.809-.413,1.4-20.844.584c.35-1.084-4.191-14.947-6.658-22.163-.048-.141.262-.644-.212-.608s-1.755-4.775-1.755-4.775,9.486-4.273,9.731-4.969l2.451,4.969-.335.585s.615-.165.69,0c2.825,6.25,7,15.954,7.257,15.253,7.232-20.077,16.284-41.674,16.284-41.674l2.66-.6Z" transform="translate(-273.596 -24.791)" fill="#6c63ff"/>
    <path id="Path_368" data-name="Path 368" d="M410.966,488.1l-10.294,34.809-.413,1.4-7.79-16.238a299.677,299.677,0,0,1,14.4-36.56l2.66-.6Z" transform="translate(-291.533 -24.791)" opacity="0.1" fill="url(#linear-gradient)"/>
    <path id="Path_393" data-name="Path 393" d="M13.482,0C20.6,0,25.525,5.772,25.525,12.892S20.6,30.586,13.482,30.586,1.3,20.012,1.3,12.892,6.361,0,13.482,0Z" transform="translate(128.295 410.306)" fill="#ffb8b8"/>
    <path id="Path_369" data-name="Path 369" d="M541.3,455.25a10.742,10.742,0,0,1-8.456,2.043c-5.157-.859-7.322-7.131-7.322-7.131l-5,3.693s-1.432,10.314,5.157,11.46,16.044,1.432,18.049,0S541.3,455.25,541.3,455.25Z" transform="translate(-387.057 -10.029)" fill="#e5a5a5"/>
    <path id="Path_398" data-name="Path 398" d="M16.312,37.841c-1.52-6.49-9.987-22.289-9.987-22.289L0,0A3.1,3.1,0,0,1,.516,2.118C.366,3.174,3.635,13.932,6.783,23.944c2.862,9.1,5.623,17.567,5.623,17.567S17.833,44.331,16.312,37.841Z" transform="matrix(0.899, 0.438, -0.438, 0.899, 111.949, 461.845)" opacity="0.32"/>
    <path id="Path_370" data-name="Path 370" d="M498.092,472.492l-.822,2.672L485.663,513H435.71a11.712,11.712,0,0,0,.234-1.4c.646-5.386.265-18.975.265-19.91,0-1.148,4.867-29.509,6.018-31.517a1.864,1.864,0,0,1,.684-.571,35.07,35.07,0,0,1,7.475-2.386s0,0,.006,0c1.78-.433,3.638-.831,5.323-1.168h0c1.653-.332,3.136-.6,4.221-.782a17.274,17.274,0,0,1,1.769-.245c.265,0,.459.314.589.8a21.957,21.957,0,0,1,.268,4.931,8.708,8.708,0,0,0,1.287,1.206,16.343,16.343,0,0,0,3.595,2.144,21.324,21.324,0,0,0,3.41,1.163h0a24.925,24.925,0,0,0,3.736.649,11.529,11.529,0,0,0,3.087-.061h.006a5.509,5.509,0,0,0,4.671-3.895c.092-.274.164-.537.228-.776,0,0,0-.009,0-.012.19-.736.271-1.252.473-1.243h0c.522.049,7.109,5.7,11.388,9.4,2.031,1.757,3.54,3.084,3.632,3.165Z" transform="translate(-326.805 -13.485)" fill="url(#linear-gradient)"/>
    <path id="Path_371" data-name="Path 371" d="M16.312,3.67,4.706,41.511H0a3.1,3.1,0,0,0,.516-2.118c-.15-1.056,3.119-11.815,6.266-21.826C9.645,8.471,12.406,0,12.406,0l2.721,1.287S15.614,2.207,16.312,3.67Z" transform="matrix(1, 0.017, -0.017, 1, 153.968, 457.73)" opacity="0.32"/>
    <path id="Path_372" data-name="Path 372" d="M621.6,545.034c-.565.141-.5,1.82-.537,3.554H598.83a3.277,3.277,0,0,0,.71-2.406c-.147-1.013,2.046-11.454,4.258-21.537,1.74-7.974-.147-14.393,2.441-18.536s7.911,1.966,7.911,1.966,8.88,16.907,6.018,20.917-2.868,4.01-1.722,6.018S622.742,544.749,621.6,545.034Z" transform="translate(-442.864 -49.069)" fill="url(#linear-gradient)"/>
    <circle id="Ellipse_22" data-name="Ellipse 22" cx="6.485" cy="6.485" r="6.485" transform="translate(120.368 397.999)" fill="#533c38"/>
    <path id="Path_373" data-name="Path 373" d="M521.862,255.485a6.485,6.485,0,0,1,5.836-6.452c-.213-.021-.429-.033-.648-.033a6.485,6.485,0,0,0,0,12.97c.219,0,.435-.012.648-.033a6.485,6.485,0,0,1-5.836-6.452Z" transform="translate(-402.791 145.54)" fill="#533c38"/>
    <path id="Path_374" data-name="Path 374" d="M510.233,333.235Z" transform="translate(-372.538 73.72)" fill="#2f2e41"/>
    <path id="Path_396" data-name="Path 396" d="M607.175,545.493c-1.294,3.752.672,7.895,0,8.592-.573.641-3.364-4.84-2.07-8.592.349-1.013-.941-5.474,0-6.418.775-.779.71,2.641,2.07,2.5,1.873-.2,5.176-2.5,5.176-2.5S608.469,541.74,607.175,545.493Z" transform="translate(-475.169 -67.98)" opacity="0.15"/>
    <rect id="Rectangle_78" data-name="Rectangle 78" width="5" height="4" transform="translate(215 503)" fill="#ff6584"/>
    <rect id="Rectangle_79" data-name="Rectangle 79" width="5" height="4" transform="translate(222 503)" fill="#f2f2f2"/>
    <path id="Path_383" data-name="Path 383" d="M278.423,621.182v2.711l-4.5-2.748a.158.158,0,0,0-.238.136v5.941a.158.158,0,0,0,.238.136l4.5-2.748v2.711a.079.079,0,0,0,.079.079h1.4a.079.079,0,0,0,.079-.079v-6.137a.079.079,0,0,0-.079-.079h-1.4A.079.079,0,0,0,278.423,621.182Z" transform="translate(-211.524 -131.652)" fill="#c2c1c9"/>
    <path id="Path_384" data-name="Path 384" d="M245.005,627.4H243.75a.158.158,0,0,1-.159-.157v-5.98a.158.158,0,0,1,.159-.157h1.255a.158.158,0,0,1,.159.157v5.98A.158.158,0,0,1,245.005,627.4Zm3.462,0h-1.255a.158.158,0,0,1-.159-.157v-5.98a.158.158,0,0,1,.159-.157h1.255a.158.158,0,0,1,.159.157v5.98A.158.158,0,0,1,248.467,627.4Z" transform="translate(-190.114 -131.652)" fill="#c2c1c9"/>
    <path id="Path_385" data-name="Path 385" d="M215.5,621.271v5.968a.154.154,0,0,0,.23.142l4.731-2.984a.169.169,0,0,0,0-.281l-4.731-2.984a.152.152,0,0,0-.23.14Z" transform="translate(-170.128 -131.656)" fill="#6c63ff"/>
    <path id="Path_397" data-name="Path 397" d="M2.22,3.766C-.341,0,.2-.2.14.095.045.515-.5,1.315,1.477,5.3c1.8,3.625,3.873,2.848,4.059,2.463S4.782,7.536,2.22,3.766Z" transform="matrix(0.242, -0.97, 0.97, 0.242, 165.669, 487.099)" opacity="0.32"/>
    <rect id="Rectangle_81" data-name="Rectangle 81" width="178.011" height="1.154" transform="translate(46.381 485.383)" fill="#c2c1c9"/>
    <rect id="Rectangle_82" data-name="Rectangle 82" width="31.015" height="1.154" transform="translate(46.381 485.383)" fill="#6c63ff"/>
    <rect id="Rectangle_83" data-name="Rectangle 83" width="82" height="4" transform="translate(37 503)" fill="#f2f2f2"/>
    <rect id="Rectangle_84" data-name="Rectangle 84" width="19" height="3" transform="translate(37 511)" fill="#f2f2f2"/>
    <rect id="Rectangle_86" data-name="Rectangle 86" width="33.467" height="2.885" transform="translate(246.753 394.54)" fill="#f2f2f2"/>
    <rect id="Rectangle_87" data-name="Rectangle 87" width="33.467" height="2.885" transform="translate(246.753 399.733)" fill="#f2f2f2"/>
    <rect id="Rectangle_88" data-name="Rectangle 88" width="33.467" height="2.885" transform="translate(246.753 404.926)" fill="#f2f2f2"/>
    <path id="Path_386" data-name="Path 386" d="M787.887,591.107l-.6-.45c-2.118-1.628-3.514-2.683-3.641-4.138a2.078,2.078,0,0,1,1.909-2.289,2.235,2.235,0,0,0,3.426-.3,2.078,2.078,0,0,1,2.278,1.923c.127,1.455-1.065,2.736-2.867,4.708Z" transform="translate(-574.353 -105.196)" fill="#ff6584"/>
    <path id="Path_387" data-name="Path 387" d="M818.174,565.01l-.326-.671c-1.147-2.412-1.913-3.986-1.365-5.34a2.078,2.078,0,0,1,2.741-1.173,2.235,2.235,0,0,0,3.188,1.288,2.078,2.078,0,0,1,1.156,2.748c-.547,1.354-2.191,1.955-4.692,2.892Z" transform="translate(-597.592 -86.516)" fill="#ff6584"/>
    <path id="Path_388" data-name="Path 388" d="M808.173,632.01l-.326-.671c-1.147-2.412-1.913-3.986-1.365-5.34a2.078,2.078,0,0,1,2.741-1.173,2.235,2.235,0,0,0,3.188,1.288,2.078,2.078,0,0,1,1.156,2.748c-.547,1.354-2.191,1.955-4.692,2.892Z" transform="translate(-590.477 -134.186)" fill="#ff6584"/>
    <g id="Rectangle_93" data-name="Rectangle 93" transform="translate(236 388)" fill="none" stroke="#615cb2" stroke-width="1">
      <rect width="52" height="112" rx="5" stroke="none"/>
      <rect x="0.5" y="0.5" width="51" height="111" rx="4.5" fill="none"/>
    </g>
    <path id="Path_390" data-name="Path 390" d="M1.212,4.753,1,4.319C.258,2.758-.237,1.739.117.863A1.345,1.345,0,0,1,1.891.1a1.463,1.463,0,0,1,.836.9A1.463,1.463,0,0,1,3.954.938,1.345,1.345,0,0,1,4.7,2.716c-.354.876-1.418,1.265-3.037,1.872Z" transform="translate(239.283 394.583) rotate(-22)" fill="#c7435d"/>
    <rect id="Rectangle_94" data-name="Rectangle 94" width="33.467" height="2.885" transform="translate(246.753 414.787)" fill="#f2f2f2"/>
    <rect id="Rectangle_95" data-name="Rectangle 95" width="33.467" height="2.885" transform="translate(246.753 419.98)" fill="#f2f2f2"/>
    <path id="Path_391" data-name="Path 391" d="M1.212,4.753,1,4.319C.258,2.758-.237,1.739.117.863A1.345,1.345,0,0,1,1.891.1a1.463,1.463,0,0,1,.836.9A1.463,1.463,0,0,1,3.954.938,1.345,1.345,0,0,1,4.7,2.716c-.354.876-1.418,1.265-3.037,1.872Z" transform="translate(239.283 414.83) rotate(-22)" fill="#ff7d97"/>
    <rect id="Rectangle_96" data-name="Rectangle 96" width="33.467" height="2.885" transform="translate(246.753 429.841)" fill="#f2f2f2"/>
    <rect id="Rectangle_97" data-name="Rectangle 97" width="33.467" height="2.885" transform="translate(246.753 435.034)" fill="#f2f2f2"/>
    <path id="Path_392" data-name="Path 392" d="M1.212,4.753,1,4.319C.258,2.758-.237,1.739.117.863A1.345,1.345,0,0,1,1.891.1a1.463,1.463,0,0,1,.836.9A1.463,1.463,0,0,1,3.954.938,1.345,1.345,0,0,1,4.7,2.716c-.354.876-1.418,1.265-3.037,1.872Z" transform="translate(239.283 429.884) rotate(-22)" fill="#db1d43"/>
    <ellipse id="Ellipse_23" data-name="Ellipse 23" cx="6.485" cy="6.485" rx="6.485" ry="6.485" transform="translate(151.506 399.345)" fill="#533c38"/>
    <path id="Path_394" data-name="Path 394" d="M526.4,255.485a6.485,6.485,0,0,0-5.836-6.452c.213-.021.429-.033.648-.033a6.485,6.485,0,0,1,0,12.97c-.219,0-.435-.012-.648-.033A6.485,6.485,0,0,0,526.4,255.485Z" transform="translate(-360.629 146.887)" fill="#533c38"/>
    <path id="Path_395" data-name="Path 395" d="M-1.282-6.753C2.1-17.73,14.9-14.458,16.125-14.458S10.334-16.543,3.616-6.753C2.259-4.776,1.848-2.368,1.322.514,1.127,1.581,2.692,14.8,2.578,16.2,2.458,17.679.26,7.48.269,9.035c.045,8.236,1.908,15.1,1.053,12-.9-3.262-4.043-3.943-4.149-13.58C-2.884,2.341-2.491-2.834-1.282-6.753Z" transform="translate(127.775 424.959)" fill="#755b56"/>
    <path id="Path_400" data-name="Path 400" d="M20.846,7.262C16.824-2.505,1.621.406.167.406s6.879-1.855,14.86,6.856c1.612,1.76,2.1,3.9,2.725,6.466.231.949-1.627,12.71-1.492,13.957C16.4,29,19.013,19.926,19,21.309c-.053,7.327-2.266,13.431-1.251,10.676,1.069-2.9,4.8-3.508,4.929-12.083C22.748,15.353,22.281,10.749,20.846,7.262Z" transform="translate(128.911 414.129) rotate(-22)" fill="#755b56"/>
    <g id="Rectangle_98" data-name="Rectangle 98" transform="translate(32 376)" fill="none" stroke="#615cb2" stroke-width="1" opacity="0.19">
      <rect width="260" height="146" rx="5" stroke="none"/>
      <rect x="0.5" y="0.5" width="259" height="145" rx="4.5" fill="none"/>
    </g>
    <g id="Rectangle_99" data-name="Rectangle 99" transform="translate(37 388)" fill="none" stroke="#615cb2" stroke-width="1">
      <rect width="195" height="112" rx="5" stroke="none"/>
      <rect x="0.5" y="0.5" width="194" height="111" rx="4.5" fill="none"/>
    </g>
  </g>
</svg>
